<svg width="876" height="443" viewBox="0 0 876 443" fill="none" xmlns="http://www.w3.org/2000/svg">
<rect width="876" height="443" fill="white"/>
<rect width="876" height="443" fill="url(#paint0_angular_3_17)"/>
<path d="M70.912 144.6C70.912 134.712 73.072 125.88 77.392 118.104C81.712 110.232 87.616 104.136 95.104 99.816C102.592 95.4 110.944 93.192 120.16 93.192C131.392 93.192 140.992 95.88 148.96 101.256C157.024 106.536 162.88 114.024 166.528 123.72H154.72C151.84 116.904 147.424 111.576 141.472 107.736C135.616 103.896 128.512 101.976 120.16 101.976C112.768 101.976 106.096 103.704 100.144 107.16C94.288 110.616 89.68 115.608 86.32 122.136C82.96 128.568 81.28 136.056 81.28 144.6C81.28 153.144 82.96 160.632 86.32 167.064C89.68 173.496 94.288 178.44 100.144 181.896C106.096 185.352 112.768 187.08 120.16 187.08C128.512 187.08 135.616 185.208 141.472 181.464C147.424 177.624 151.84 172.344 154.72 165.624H166.528C162.88 175.224 157.024 182.664 148.96 187.944C140.896 193.224 131.296 195.864 120.16 195.864C110.944 195.864 102.592 193.704 95.104 189.384C87.616 184.968 81.712 178.872 77.392 171.096C73.072 163.32 70.912 154.488 70.912 144.6ZM196.694 94.344V195H186.614V94.344H196.694ZM277.84 171.096H232.048L223.264 195H212.608L249.328 95.64H260.704L297.28 195H286.624L277.84 171.096ZM274.816 162.744L254.944 108.312L235.072 162.744H274.816ZM367.026 195L342.114 152.952H323.538V195H313.458V94.344H343.698C354.93 94.344 363.426 97.032 369.186 102.408C375.042 107.784 377.969 114.84 377.969 123.576C377.969 130.872 375.858 137.112 371.634 142.296C367.506 147.384 361.362 150.696 353.202 152.232L379.122 195H367.026ZM323.538 144.744H343.842C351.714 144.744 357.618 142.824 361.554 138.984C365.586 135.144 367.602 130.008 367.602 123.576C367.602 116.952 365.682 111.864 361.842 108.312C358.002 104.664 351.954 102.84 343.698 102.84H323.538V144.744ZM456.293 171.096H410.501L401.717 195H391.061L427.781 95.64H439.157L475.733 195H465.077L456.293 171.096ZM453.269 162.744L433.397 108.312L413.525 162.744H453.269ZM567.799 195H557.719L501.991 110.328V195H491.911V94.344H501.991L557.719 178.872V94.344H567.799V195Z" fill="black"/>
<path d="M121.024 344.152C111.712 344.152 103.36 341.992 95.968 337.672C88.672 333.256 82.96 327.112 78.832 319.24C74.704 311.368 72.64 302.44 72.64 292.456C72.64 282.472 74.704 273.544 78.832 265.672C82.96 257.8 88.672 251.704 95.968 247.384C103.36 242.968 111.712 240.76 121.024 240.76C130.336 240.76 138.64 242.968 145.936 247.384C153.328 251.704 159.088 257.8 163.216 265.672C167.344 273.544 169.408 282.472 169.408 292.456C169.408 302.44 167.344 311.368 163.216 319.24C159.088 327.112 153.328 333.256 145.936 337.672C138.64 341.992 130.336 344.152 121.024 344.152ZM121.024 341.56C129.472 341.56 137.152 339.592 144.064 335.656C150.976 331.624 156.4 325.912 160.336 318.52C164.368 311.032 166.384 302.344 166.384 292.456C166.384 282.568 164.368 273.928 160.336 266.536C156.4 259.048 150.976 253.336 144.064 249.4C137.152 245.368 129.472 243.352 121.024 243.352C112.576 243.352 104.896 245.368 97.984 249.4C91.072 253.336 85.6 259.048 81.568 266.536C77.632 273.928 75.664 282.568 75.664 292.456C75.664 302.344 77.632 311.032 81.568 318.52C85.6 325.912 91.072 331.624 97.984 335.656C104.896 339.592 112.576 341.56 121.024 341.56ZM190.143 241.624H194.751L184.959 269.272H182.367L190.143 241.624ZM207.781 292.456C207.781 282.376 209.797 273.448 213.829 265.672C217.861 257.8 223.477 251.656 230.677 247.24C237.877 242.824 245.989 240.616 255.013 240.616C266.821 240.616 276.565 243.352 284.245 248.824C292.021 254.296 297.685 261.88 301.237 271.576H298.357C295.285 263.032 290.053 256.168 282.661 250.984C275.269 245.8 266.053 243.208 255.013 243.208C246.757 243.208 239.269 245.224 232.549 249.256C225.829 253.192 220.501 258.904 216.565 266.392C212.725 273.784 210.805 282.472 210.805 292.456C210.805 302.344 212.725 310.984 216.565 318.376C220.501 325.768 225.829 331.48 232.549 335.512C239.365 339.448 246.853 341.416 255.013 341.416C266.053 341.416 275.269 338.872 282.661 333.784C290.053 328.6 295.285 321.736 298.357 313.192H301.237C297.685 322.888 292.021 330.472 284.245 335.944C276.565 341.32 266.821 344.008 255.013 344.008C245.989 344.008 237.877 341.848 230.677 337.528C223.477 333.112 217.861 327.016 213.829 319.24C209.797 311.368 207.781 302.44 207.781 292.456ZM366.837 344.152C357.525 344.152 349.173 341.992 341.781 337.672C334.485 333.256 328.773 327.112 324.645 319.24C320.517 311.368 318.453 302.44 318.453 292.456C318.453 282.472 320.517 273.544 324.645 265.672C328.773 257.8 334.485 251.704 341.781 247.384C349.173 242.968 357.525 240.76 366.837 240.76C376.149 240.76 384.453 242.968 391.749 247.384C399.141 251.704 404.901 257.8 409.029 265.672C413.157 273.544 415.221 282.472 415.221 292.456C415.221 302.44 413.157 311.368 409.029 319.24C404.901 327.112 399.141 333.256 391.749 337.672C384.453 341.992 376.149 344.152 366.837 344.152ZM366.837 341.56C375.285 341.56 382.965 339.592 389.877 335.656C396.789 331.624 402.213 325.912 406.149 318.52C410.181 311.032 412.197 302.344 412.197 292.456C412.197 282.568 410.181 273.928 406.149 266.536C402.213 259.048 396.789 253.336 389.877 249.4C382.965 245.368 375.285 243.352 366.837 243.352C358.389 243.352 350.709 245.368 343.797 249.4C336.885 253.336 331.413 259.048 327.381 266.536C323.445 273.928 321.477 282.568 321.477 292.456C321.477 302.344 323.445 311.032 327.381 318.52C331.413 325.912 336.885 331.624 343.797 335.656C350.709 339.592 358.389 341.56 366.837 341.56ZM504.787 343H501.907L438.979 246.952V343H436.099V241.768H438.979L501.907 337.672V241.768H504.787V343ZM598.022 343H595.142L532.214 246.952V343H529.334V241.768H532.214L595.142 337.672V241.768H598.022V343ZM625.448 244.216V291.016H667.784V293.608H625.448V340.408H672.104V343H622.568V241.624H672.104V244.216H625.448ZM694.354 340.408H733.234V343H691.474V241.624H694.354V340.408ZM751.167 340.408H790.047V343H748.287V241.624H751.167V340.408Z" fill="black"/>
<defs>
<radialGradient id="paint0_angular_3_17" cx="0" cy="0" r="1" gradientUnits="userSpaceOnUse" gradientTransform="translate(438 221.5) rotate(90) scale(221.5 438)">
<stop offset="0.63699" stop-color="white"/>
<stop offset="1" stop-color="white" stop-opacity="0"/>
</radialGradient>
</defs>
</svg>
